<?xml version="1.0" encoding="utf-8"?>
<svg xmlns="http://www.w3.org/2000/svg" viewBox="0 0 42 42" id="kentico" width="100%" height="100%" fill="#ffffff">
  <path class="c3fe88a6e-a06f-4a12-b529-41b99506a45d" d="M24.34 27.23l3.59 3.59c2.13 2.13 4.33-1.5 4.33-1.5l-5-5c-1.84-1.84-4.72 1.12-2.92 2.91zM30.82 14.07c2.13-2.13-1.5-4.33-1.5-4.33l-5 5c-1.82 1.82 1.14 4.69 2.94 2.89z"></path>
  <circle class="c3fe88a6e-a06f-4a12-b529-41b99506a45d" cx="21" cy="21" r="2.99"></circle>
  <path class="c3fe88a6e-a06f-4a12-b529-41b99506a45d" d="M23.06 14.24V9.17c0-3-4.12-2-4.12-2v7.11c0 2.56 4.12 2.5 4.12-.04zM7.16 23.06h7.11c2.57 0 2.51-4.12 0-4.12h-5.1c-3.02 0-2.01 4.12-2.01 4.12zM14.07 11.18c-2.13-2.13-4.33 1.5-4.33 1.5l5 5c1.82 1.82 4.69-1.14 2.89-2.93zM27.73 18.94c-2.57 0-2.51 4.12 0 4.12h5.08c3 0 2-4.12 2-4.12zM14.77 24.34l-3.59 3.59c-2.13 2.13 1.5 4.33 1.5 4.33l5-5c1.84-1.84-1.12-4.72-2.91-2.92zM18.94 27.76v5.08c0 3 4.12 2 4.12 2v-7.11c0-2.57-4.12-2.51-4.12.03z"></path>
</svg>